Coordinates
version=1
nRows=8
nColumns=40
inDegrees=yes

Units are S.I. units (second, meters, Newtons, ...)
If the header above contains a line with 'inDegrees', this indicates whether rotational values are in degrees (yes) or radians (no).

endheader
time	pelvis_tilt	pelvis_list	pelvis_rotation	pelvis_tx	pelvis_ty	pelvis_tz	hip_flexion_r	hip_adduction_r	hip_rotation_r	knee_angle_r	knee_angle_r_beta	ankle_angle_r	subtalar_angle_r	mtp_angle_r	hip_flexion_l	hip_adduction_l	hip_rotation_l	knee_angle_l	knee_angle_l_beta	ankle_angle_l	subtalar_angle_l	mtp_angle_l	lumbar_extension	lumbar_bending	lumbar_rotation	arm_flex_r	arm_add_r	arm_rot_r	elbow_flex_r	pro_sup_r	wrist_flex_r	wrist_dev_r	arm_flex_l	arm_add_l	arm_rot_l	elbow_flex_l	pro_sup_l	wrist_flex_l	wrist_dev_l
      0.17000000	     11.59362947	     -7.92238530	      4.34822858	     -1.07387314	      1.04437000	      0.22496798	      3.39067384	     10.61839837	     -7.29717799	      5.27689985	      0.09209928	    -10.46683368	      0.00000000	      0.00000000	    -18.47012279	    -13.53061253	     -7.66406976	     43.57685145	      0.76055954	    -14.65176051	      0.00000000	      0.00000000	    -28.77098688	     11.35223458	      5.27601876	    -12.10430618	      3.42833628	    -24.82571276	     43.88347791	     89.35062535	     -0.74072921	     14.49048957	     12.36729371	     -3.99721408	      1.00238762	     55.99321315	     89.40766775	    -15.85573838	     -1.95253195
      0.18000000	     11.42348596	     -8.32698752	      4.52797998	     -1.05984674	      1.04616987	      0.22616723	      2.64574297	     11.20315324	     -7.09864076	      5.01213293	      0.08747822	     -9.90006191	      0.00000000	      0.00000000	    -16.34140976	    -14.32308155	     -6.64873948	     46.71348309	      0.81530408	    -15.72870169	      0.00000000	      0.00000000	    -28.62513074	     11.70225344	      5.56820523	    -11.76750057	      3.32845149	    -24.59055041	     43.69889026	     89.35113038	     -0.64578424	     14.69359838	     11.78221967	     -3.59357778	      1.03222398	     55.11545870	     89.41342732	    -15.90301006	     -1.81894039
      0.19000000	     11.26885326	     -8.58508587	      4.67000423	     -1.04611837	      1.04796654	      0.22739827	      1.85340305	     11.64094059	     -6.80670890	      4.70769386	      0.08216476	     -9.26250886	      0.00000000	      0.00000000	    -14.17248190	    -14.86961599	     -5.53772386	     49.66126437	      0.86675257	    -16.23827562	      0.00000000	      0.00000000	    -28.50758295	     11.86177780	      5.88142404	    -11.41949148	      3.24263632	    -24.36597151	     43.58848045	     89.34967799	     -0.53472855	     15.01890009	     11.27292378	     -3.21141080	      1.13457332	     54.11948243	     89.41748319	    -15.87552486	     -1.70483497
      0.20000000	     11.12970326	     -8.71892788	      4.81128517	     -1.03263065	      1.04973106	      0.22858933	      1.03802376	     11.94839055	     -6.54819485	      4.40635521	      0.07690541	     -8.54029801	      0.00000000	      0.00000000	    -11.98326783	    -15.19728980	     -4.34276175	     52.38081089	      0.91421761	    -16.11310942	      0.00000000	      0.00000000	    -28.41655473	     11.87718850	      6.17539085	    -11.06456113	      3.15214523	    -24.12920674	     43.55619026	     89.35375280	     -0.32341418	     15.42208322	     10.81374712	     -2.85762064	      1.28337929	     53.04712186	     89.42513229	    -15.80112383	     -1.61849595
      0.21000000	     11.00435140	     -8.71413038	      4.87718789	     -1.01937089	      1.05149275	      0.22990012	      0.19742285	     12.12027304	     -6.22317468	      4.10835522	      0.07170433	     -7.86946773	      0.00000000	      0.00000000	     -9.83018255	    -15.30446235	     -3.22791251	     54.81453859	      0.95669418	    -15.49579338	      0.00000000	      0.00000000	    -28.36118103	     11.69644221	      6.49355087	    -10.67831459	      3.06917005	    -23.87680418	     43.54095775	     89.35781649	     -0.12676470	     15.79169372	     10.40147804	     -2.54483718	      1.47111999	     51.89656258	     89.43317564	    -15.71012696	     -1.48105280
      0.22000000	     10.89580391	     -8.59576583	      4.90010848	     -1.00629996	      1.05323927	      0.23122463	     -0.66090119	     12.17058484	     -5.89563548	      3.83164806	      0.06687487	     -7.19261951	      0.00000000	      0.00000000	     -7.73066365	    -15.22734529	     -2.21756013	     56.92557467	      0.99353871	    -14.43649580	      0.00000000	      0.00000000	    -28.34298393	     11.37923688	      6.78870251	    -10.26923224	      2.97359373	    -23.59168160	     43.59802097	     89.35989681	      0.07789146	     16.12807253	     10.01122368	     -2.27560648	      1.68186016	     50.69697172	     89.43931058	    -15.59175005	     -1.32795315
      0.23000000	     11.11325109	     -8.33247148	      4.73076592	     -0.99335823	      1.05556684	      0.23285113	     -1.91660257	     12.09661204	     -5.40410082	      3.52053108	      0.06144486	     -6.63324529	      0.00000000	      0.00000000	     -6.15740620	    -14.98379445	     -1.58869743	     58.52920087	      1.02152726	    -13.46701775	      0.00000000	      0.00000000	    -28.77627923	     10.78966826	      7.19132134	     -9.76231925	      2.85033033	    -23.12927752	     43.65611497	     89.36881916	      0.19036702	     16.21303285	      9.56287845	     -2.01718657	      1.64185800	     49.74050031	     89.45206938	    -15.56964789	     -1.17800270
      0.24000000	     10.71334442	     -8.06009929	      4.73439606	     -0.98049281	      1.05656298	      0.23411720	     -2.38102456	     11.94148409	     -5.19249987	      3.39189620	      0.05919976	     -5.88814889	      0.00000000	      0.00000000	     -3.79213159	    -14.63648256	     -0.67171460	     60.07827582	      1.04856372	    -11.40330926	      0.00000000	      0.00000000	    -28.37417174	     10.29767744	      7.38121574	     -9.39329695	      2.75707281	    -22.85942693	     43.81410761	     89.37002968	      0.33782915	     16.58672197	      9.21110146	     -1.85264211	      2.04435361	     48.29151733	     89.45461395	    -15.33749202	     -0.96245852
